<?xml version="1.0" encoding="utf-8"?>
<?xml-stylesheet type="text/xsl" href="rss1.xsl"?>
<rss version="2.0" xmlns:atom="http://www.w3.org/2005/Atom" xmlns:content="http://purl.org/rss/1.0/modules/content/" xmlns:dc="http://purl.org/dc/elements/1.1/" xmlns:media="http://search.yahoo.com/mrss/">
<channel>
 <title>Getty</title>
 <link>http://www.gettyimg.com/</link>
 <atom:link href="http://www.gettyimg.com/" rel="self" type="application/rss+xml" />

 
                <item>
                <title><![CDATA[【Albums (lossless)】ALAC - Dewa 19 - The Greatest Hits [Apple Digital Master]]]></title>
                <link><![CDATA[https://sharemania.us/threads/dewa-19-the-greatest-hits-apple-digital-master.238701/]]></link>
                <description><![CDATA[<article>
<blockquote class="messageText SelectQuoteContainer ugc baseHtml">
<img src="https://is1-ssl.mzstatic.com/image/thumb/Music/v4/8b/5e/08/8b5e08ec-7335-21f8-5dd0-ae8293bf9e00/DEWA_21.jpg/1200x1200bf-60.jpg" class="bbCodeImage LbImage" alt="[​IMG]" data-url="https://is1-ssl.mzstatic.com/image/thumb/Music/v4/8b/5e/08/8b5e08ec-7335-21f8-5dd0-ae8293bf9e00/DEWA_21.jpg/1200x1200bf-60.jpg" style=""><br>
<br>
<span style="font-size: 18px"><b><span style="text-decoration: underline">[Apple Digital Master]</span></b><br>
<b>Artist: Dewa 19</b><br>
<b>Album: The Greatest Hits</b><br>
Countries: Indonesia<br>
Source: Apple Music<br>
Format: Apple Lossless Audio Codec w/ Core Media Audio<br>
.m4a [ALAC, 24bit/44.1kHz, 2,1Mbps]<br>
</span><br>
<br>
<span style="color: #ff0000"><b>Tracklist:</b><br>
</span><br>
<i>1. Mukadinah + Roman Picisan<br>
2. Mistikus Cinta<br>
3. Pupus<br>
4. Bukan Rahasia<br>
5. Dua Sedjoli<br>
6. Kosong<br>
7. Satu<br>
8. Pangeran Cinta<br>
9. Separuh Nafas<br>
10. Angin<br>
11. Arjuna<br>
12. Risalah Cinta<br>
13. Cemburu<br>
14. Hadapi Dengan Senyuman</i><br>
<br>
Link Download:<br>
Google Drive:<br>
<div class="bbCodeBlock bbCodeVfcHH HiddenContent">
<div class="attribution type">Hidden Content:</div>
<blockquote>You must reply before you can see the hidden data contained here.</blockquote>
</div>Terabox:<br>
<div class="bbCodeBlock bbCodeVfcHH HiddenContent">
<div class="attribution type">Hidden Content:</div>
<blockquote>You must reply before you can see the hidden data contained here.</blockquote>
</div>PixexDrain (ZIP):<br>
<div class="bbCodeBlock bbCodeVfcHH HiddenContent">
<div class="attribution type">Hidden Content:</div>
<blockquote>You must reply before you can see the hidden data contained here.</blockquote>
</div>
<div class="messageTextEndMarker">&nbsp;</div>
</blockquote>
</article>]]></description>
                <author><![CDATA[andammm777]]></author>
                </item>

                
                <item>
                <title><![CDATA[【Cinema Center】SERIES - Disney Mickey Mouse - Season 3-5 - 1080p Disney+ WEB-DL DDP5.1 H.264-LAZY]]></title>
                <link><![CDATA[https://sharemania.us/threads/disney-mickey-mouse-season-3-5-1080p-disney-web-dl-ddp5-1-h-264-lazy.238700/]]></link>
                <description><![CDATA[<article>
<blockquote class="messageText SelectQuoteContainer ugc baseHtml">
Disney Mickey Mouse:<img src="http:////cdn2.broadcasthe.net/tvdb/banners/graphical/5b01d7a48cce8_t.jpg" class="bbCodeImage LbImage" alt="[​IMG]" data-url="http:////cdn2.broadcasthe.net/tvdb/banners/graphical/5b01d7a48cce8_t.jpg" style=""> <br>
<br>
<div class="bbCodeBlock bbCodeQuote">
<aside>
<blockquote class="quoteContainer"><div class="quote"><i><b>Synopsis:</b></i><br>
Mickey Mouse takes on new adventures finding himself in silly situations in different settings.</div><div class="quoteExpand">Click to expand...</div></blockquote>
</aside>
</div>
<div class="ToggleTriggerAnchor bbCodeSpoilerContainer">
<button type="button" class="button bbCodeSpoilerButton ToggleTrigger Tooltip JsOnly" data-target="> .SpoilerTarget"><span>Spoiler: <span class="SpoilerTitle">MediaInfo</span></span></button>
<div class="SpoilerTarget bbCodeSpoilerText">General<br>
Unique ID : 73663997662786886504205525674434053797 (0x376B2B7E0E30DB12A613CBDE9D7D46A5)<br>
Complete name : Disney.Mickey.Mouse.S03E01.Coned.1080p.DSNP.WEB-DL.DDP5.1.H.264-LAZY.mkv<br>
Format : Matroska<br>
Format version : Version 4<br>
File size : 234 MiB<br>
Duration : 3 min 45 s<br>
Overall bit rate mode : Variable<br>
Overall bit rate : 8 711 kb/s<br>
Encoded date : UTC 2024-02-27 03:42:29<br>
Writing application : mkvmerge v82.0 ('I'm The President') 64-bit<br>
Writing library : libebml v1.4.5 + libmatroska v1.7.1<br>
<br>
Video<br>
ID : 1<br>
Format : AVC<br>
Format/Info : Advanced Video Codec<br>
Format profile : High@L4<br>
Format settings : CABAC / 4 Ref Frames<br>
Format settings, CABAC : Yes<br>
Format settings, Reference frames : 4 frames<br>
Codec ID : V_MPEG4/ISO/AVC<br>
Duration : 3 min 45 s<br>
Bit rate mode : Variable<br>
Bit rate : 8 453 kb/s<br>
Maximum bit rate : 12.7 Mb/s<br>
Width : 1 920 pixels<br>
Height : 1 080 pixels<br>
Display aspect ratio : 16:9<br>
Frame rate mode : Constant<br>
Frame rate : 23.976 (24000/1001) FPS<br>
Color space : YUV<br>
Chroma subsampling : 4:2:0<br>
Bit depth : 8 bits<br>
Scan type : Progressive<br>
Bits/(Pixel*Frame) : 0.170<br>
Stream size : 227 MiB (97%)<br>
Default : Yes<br>
Forced : No<br>
Color range : Limited<br>
Color primaries : BT.709<br>
Transfer characteristics : BT.709<br>
Matrix coefficients : BT.709<br>
<br>
Audio<br>
ID : 2<br>
Format : E-AC-3<br>
Format/Info : Enhanced AC-3<br>
Commercial name : Dolby Digital Plus<br>
Codec ID : A_EAC3<br>
Duration : 3 min 45 s<br>
Bit rate mode : Constant<br>
Bit rate : 256 kb/s<br>
Channel(s) : 6 channels<br>
Channel layout : L R C LFE Ls Rs<br>
Sampling rate : 48.0 kHz<br>
Frame rate : 31.250 FPS (1536 SPF)<br>
Compression mode : Lossy<br>
Stream size : 6.88 MiB (3%)<br>
Language : English<br>
Service kind : Complete Main<br>
Default : Yes<br>
Forced : No<br>
<br>
Text #1<br>
ID : 3<br>
Format : UTF-8<br>
Codec ID : S_TEXT/UTF8<br>
Codec ID/Info : UTF-8 Plain Text<br>
Duration : 3 min 32 s<br>
Bit rate : 63 b/s<br>
Count of elements : 74<br>
Stream size : 1.65 KiB (0%)<br>
Title : SDH<br>
Language : English<br>
Default : No<br>
Forced : No<br>
<br>
Text #2<br>
ID : 4<br>
Format : UTF-8<br>
Codec ID : S_TEXT/UTF8<br>
Codec ID/Info : UTF-8 Plain Text<br>
Duration : 3 min 38 s<br>
Bit rate : 41 b/s<br>
Count of elements : 43<br>
Stream size : 1.11 KiB (0%)<br>
Language : Czech<br>
Default : No<br>
Forced : No<br>
<br>
Text #3<br>
ID : 5<br>
Format : UTF-8<br>
Codec ID : S_TEXT/UTF8<br>
Codec ID/Info : UTF-8 Plain Text<br>
Duration : 3 min 41 s<br>
Bit rate : 75 b/s<br>
Count of elements : 41<br>
Stream size : 2.03 KiB (0%)<br>
Language : Greek<br>
Default : No<br>
Forced : No<br>
<br>
Text #4<br>
ID : 6<br>
Format : UTF-8<br>
Codec ID : S_TEXT/UTF8<br>
Codec ID/Info : UTF-8 Plain Text<br>
Duration : 3 min 43 s<br>
Bit rate : 35 b/s<br>
Count of elements : 43<br>
Stream size : 980 Bytes (0%)<br>
Language : Hungarian<br>
Default : No<br>
Forced : No<br>
<br>
Text #5<br>
ID : 7<br>
Format : UTF-8<br>
Codec ID : S_TEXT/UTF8<br>
Codec ID/Info : UTF-8 Plain Text<br>
Duration : 3 min 36 s<br>
Bit rate : 39 b/s<br>
Count of elements : 41<br>
Stream size : 1.06 KiB (0%)<br>
Language : Polish<br>
Default : No<br>
Forced : No<br>
<br>
Text #6<br>
ID : 8<br>
Format : UTF-8<br>
Codec ID : S_TEXT/UTF8<br>
Codec ID/Info : UTF-8 Plain Text<br>
Duration : 3 min 44 s<br>
Bit rate : 46 b/s<br>
Count of elements : 41<br>
Stream size : 1.28 KiB (0%)<br>
Language : Romanian<br>
Default : No<br>
Forced : No<br>
<br>
Text #7<br>
ID : 9<br>
Format : UTF-8<br>
Codec ID : S_TEXT/UTF8<br>
Codec ID/Info : UTF-8 Plain Text<br>
Duration : 3 min 32 s<br>
Bit rate : 49 b/s<br>
Count of elements : 41<br>
Stream size : 1.27 KiB (0%)<br>
Language : Turkish<br>
Default : No<br>
Forced : No<br>
<br>
Text #8<br>
ID : 10<br>
Format : UTF-8<br>
Codec ID : S_TEXT/UTF8<br>
Codec ID/Info : UTF-8 Plain Text<br>
Duration : 3 min 44 s<br>
Bit rate : 40 b/s<br>
Count of elements : 43<br>
Stream size : 1.12 KiB (0%)<br>
Title : Traditional, Hong Kong<br>
Language : Chinese<br>
Default : No<br>
Forced : No<br>
<br>
Text #9<br>
ID : 11<br>
Format : UTF-8<br>
Codec ID : S_TEXT/UTF8<br>
Codec ID/Info : UTF-8 Plain Text<br>
Duration : 3 min 43 s<br>
Bit rate : 41 b/s<br>
Count of elements : 44<br>
Stream size : 1.14 KiB (0%)<br>
Title : Traditional<br>
Language : Chinese<br>
Default : No<br>
Forced : No<br>
<br>
Menu<br>
00:03:30.210 : en:Credits</div>
</div><br>
Screenshots:<br>
<img src="https://ptpimg.me/a30mo4.jpg" class="bbCodeImage LbImage" alt="[​IMG]" data-url="https://ptpimg.me/a30mo4.jpg" style=""> <br>
<div class="bbCodeBlock bbCodeVfcHH HiddenContent">
<div class="attribution type">Hidden Content:</div>
<blockquote>You must either reply or click 'Like' to see the hidden information contained here.</blockquote>
</div>
<div class="messageTextEndMarker">&nbsp;</div>
</blockquote>
</article>]]></description>
                <author><![CDATA[LazyRips]]></author>
                </item>

                </channel></rss>